<svg xmlns="http://www.w3.org/2000/svg" style="color-scheme:light dark;fill:currentcolor;" viewBox="24 26 68 68">
	<line y2="72.394" x2="41.061" y1="43.384" x1="58.069" stroke-miterlimit="10" stroke-width="3.5528" stroke="currentcolor" fill="none" />
	<line y2="72.394" x2="75.076" y1="43.384" x1="58.068" stroke-miterlimit="10" stroke-width="3.5008" stroke="currentcolor" fill="none" />
	<path d="M52.773,77.084c0,1.954-1.599,3.553-3.553,3.553H36.999c-1.954,0-3.553-1.599-3.553-3.553v-9.379c0-1.954,1.599-3.553,3.553-3.553h12.222c1.954,0,3.553,1.599,3.553,3.553V77.084z" />
	<path d="M67.762,48.074c0,1.954-1.599,3.553-3.553,3.553H51.988c-1.954,0-3.553-1.599-3.553-3.553v-9.379c0-1.954,1.599-3.553,3.553-3.553H64.21c1.954,0,3.553,1.599,3.553,3.553V48.074z" />
	<path d="M82.752,77.084c0,1.954-1.599,3.553-3.553,3.553H66.977c-1.954,0-3.553-1.599-3.553-3.553v-9.379c0-1.954,1.599-3.553,3.553-3.553h12.222c1.954,0,3.553,1.599,3.553,3.553V77.084z" />
</svg>
